<svg width="82" height="100" viewBox="0 0 82 100" fill="none" xmlns="http://www.w3.org/2000/svg">
<g clip-path="url(#clip0_572_280)">
<path d="M67.8741 53.0257C68.0144 68.13 81.1246 73.1564 81.2698 73.2206C81.159 73.575 79.175 80.3836 74.3627 87.4163C70.2027 93.4965 65.8852 99.5544 59.0837 99.6799C52.4007 99.803 50.2517 95.7168 42.611 95.7168C34.9727 95.7168 32.585 99.5544 26.2588 99.803C19.6937 100.051 14.6944 93.2281 10.4998 87.1702C1.92866 74.7786 -4.62147 52.1544 4.1737 36.8827C8.54296 29.2987 16.3511 24.4962 24.8262 24.3731C31.273 24.2501 37.358 28.7102 41.299 28.7102C45.2374 28.7102 52.632 23.3465 60.4056 24.1342C63.6599 24.2697 72.7948 25.4488 78.6605 34.0347C78.1879 34.3277 67.7607 40.3979 67.8741 53.0257ZM55.314 15.9361C58.7995 11.7171 61.1454 5.84384 60.5054 0C55.4814 0.201921 49.4062 3.34787 45.8026 7.56456C42.573 11.2986 39.7447 17.2752 40.5078 23.0034C46.1077 23.4367 51.8284 20.1578 55.314 15.9361Z" fill="white"/>
</g>
<defs>
<clipPath id="clip0_572_280">
<rect width="81.2698" height="100" fill="white"/>
</clipPath>
</defs>
</svg>
