<svg width="200" height="200" viewBox="0 0 200 200" fill="none" xmlns="http://www.w3.org/2000/svg">
<path d="M132.899 0.000771903C128.581 0.0266145 124.165 0.702397 119.761 2.11118C117.143 2.94885 116.622 6.40676 118.857 8.00631C127.915 14.489 135.186 23.2068 139.937 33.5443C140.437 34.6331 141.477 35.3869 142.672 35.4773C149.781 36.0151 155.372 41.9685 155.372 49.1836C155.372 58.4597 146.442 64.831 137.951 62.435C136.798 62.1097 135.561 62.4642 134.722 63.3193C134.028 64.0266 133.32 64.7175 132.598 65.3923C130.837 67.0385 131.345 69.9473 133.563 70.892L137.94 72.7568C142.472 74.6845 145.981 78.0825 148.071 82.1917C148.901 83.8242 150.887 84.4605 152.532 83.6553C167.503 76.3262 177.528 60.8102 177.183 43.1965C176.702 18.6623 156.22 -0.138788 132.899 0.000771903ZM49.7775 0.0316881C47.9372 0.0316881 46.4451 1.52376 46.4451 3.36407V6.90473H42.9045C41.0641 6.90473 39.5721 8.39681 39.5721 10.2371C39.5721 12.0774 41.0641 13.5695 42.9045 13.5695H46.4451V17.1102C46.4451 18.9505 47.9372 20.4425 49.7775 20.4425C51.6178 20.4425 53.1099 18.9505 53.1099 17.1102V13.5695H56.6505C58.4909 13.5695 59.9829 12.0774 59.9829 10.2371C59.9829 8.39681 58.4909 6.90473 56.6505 6.90473H53.1099V3.36407C53.1099 1.52376 51.6178 0.0316881 49.7775 0.0316881ZM107.563 9.247C106.758 9.20135 105.946 9.44831 105.299 9.97759C88.9418 23.3563 84.7967 45.805 93.6558 63.6399C94.5135 65.3669 96.667 65.939 98.3241 64.953C103.694 61.7581 110.497 61.0654 116.642 63.6846L119.85 65.0506C120.94 65.5151 122.2 65.372 123.146 64.6577C124.939 63.3043 126.942 61.6045 128.897 59.7071C129.967 58.6686 130.248 57.0306 129.536 55.7214C126.532 50.1984 127.683 43.212 132.448 38.9562C133.571 37.9527 133.912 36.349 133.249 34.9965C127.878 24.043 119.341 15.3244 108.966 9.64809C108.525 9.40722 108.046 9.27439 107.563 9.247ZM10.2054 39.1872C8.36512 39.1872 6.87304 40.6793 6.87304 42.5196V46.0603H3.33238C1.49208 46.0603 0 47.5523 0 49.3926C0 51.2329 1.49208 52.725 3.33238 52.725H6.87304V56.2657C6.87304 58.106 8.36512 59.5981 10.2054 59.5981C12.0457 59.5981 13.5378 58.106 13.5378 56.2657V52.725H17.0785C18.9188 52.725 20.4109 51.2329 20.4109 49.3926C20.4109 47.5523 18.9188 46.0603 17.0785 46.0603H13.5378V42.5196C13.5378 40.6793 12.0457 39.1872 10.2054 39.1872ZM141.626 42.103C137.701 42.103 134.545 45.315 134.545 49.1844C134.545 52.7471 137.231 55.7995 140.801 56.2161C144.946 56.7267 148.708 53.4457 148.708 49.1844C148.708 45.2313 145.475 42.103 141.626 42.103ZM57.9156 59.6754C52.374 59.7646 47.1122 62.9845 44.7171 68.396C41.4334 75.8156 44.4444 83.484 50.3356 87.1325C59.2785 92.6743 68.8136 97.3805 78.6113 101.087C89.2407 105.125 99.027 107.364 99.2011 107.364C100.629 107.709 101.597 108.956 101.722 110.301C101.932 112.58 99.901 114.412 97.6683 113.908C94.8091 113.258 91.5525 112.342 88.5612 111.435C87.292 111.05 85.8165 111.548 85.0946 112.958C84.1699 114.763 85.3447 116.938 87.3628 117.143C90.2008 117.431 93.0295 117.951 95.7646 118.69C97.5124 119.165 98.6894 121.008 97.9596 123.068C97.3918 124.671 95.6939 125.58 94.0569 125.143C73.8376 119.672 52.4925 128.448 43.046 149.432C42.3837 150.903 42.8656 152.634 44.194 153.548L68.8012 170.49C70.1325 171.407 71.9318 171.24 73.0635 170.086C79.283 163.747 88.3951 160.871 97.2022 162.819C105.816 164.718 114.638 160.174 118.183 152.005L138.372 105.51C139.057 103.933 138.337 102.098 136.762 101.407L122.349 95.0803C120.666 94.3389 119.9 92.3723 120.637 90.6895C121.379 89.0025 123.344 88.2363 125.027 88.9777L139.989 95.5432C141.427 96.1743 143.111 95.3085 143.389 93.7135C144.476 87.4695 141.16 81.3717 135.329 78.8894L114.03 69.8165C110.972 68.516 107.673 68.4285 104.696 69.3528C103.251 69.8018 103.133 71.8102 104.504 72.4509L110.002 75.0193C111.682 75.8091 112.382 77.8001 111.61 79.4476C110.832 81.1137 108.848 81.835 107.178 81.0552C88.6347 72.3976 69.3806 63.393 64.3941 61.0649C62.2949 60.0848 60.0841 59.6404 57.9156 59.6754ZM151.49 96.9377C150.201 96.9435 148.979 97.7011 148.442 98.961C143.25 111.142 123.883 155.569 123.74 155.854C123.329 156.681 122.877 157.478 122.388 158.243C121.23 160.05 122.018 162.456 124.032 163.197C126.705 164.179 129.611 164.902 132.095 164.902C137.236 164.902 142.176 162.511 145.338 158.304C154.681 145.861 161.108 131.228 163.928 115.983C165.335 108.351 161.138 100.649 153.94 97.6707L152.78 97.1915C152.358 97.0171 151.92 96.9358 151.49 96.9377ZM25.6177 97.9205C23.7774 97.9205 22.2853 99.4126 22.2853 101.253V104.794H18.7447C16.9044 104.794 15.4123 106.286 15.4123 108.126C15.4123 109.966 16.9044 111.458 18.7447 111.458H22.2853V114.999C22.2853 116.839 23.7774 118.331 25.6177 118.331C27.458 118.331 28.9501 116.839 28.9501 114.999V111.458H32.4908C34.3311 111.458 35.8231 109.966 35.8231 108.126C35.8231 106.286 34.3311 104.794 32.4908 104.794H28.9501V101.253C28.9501 99.4126 27.458 97.9205 25.6177 97.9205ZM189.738 104.585C187.897 104.585 186.405 106.077 186.405 107.918V111.458H182.865C181.024 111.458 179.532 112.95 179.532 114.791C179.532 116.631 181.024 118.123 182.865 118.123H186.405V121.664C186.405 123.504 187.897 124.996 189.738 124.996C191.578 124.996 193.07 123.504 193.07 121.664V118.123H196.611C198.451 118.123 199.943 116.631 199.943 114.791C199.943 112.95 198.451 111.458 196.611 111.458H193.07V107.918C193.07 106.077 191.578 104.585 189.738 104.585ZM149.033 117.225C149.466 117.228 149.905 117.316 150.327 117.498C152.019 118.227 152.794 120.19 152.065 121.881L145.779 136.41C145.042 138.12 143.059 138.871 141.401 138.147C139.71 137.418 138.931 135.456 139.664 133.765L145.946 119.235C146.495 117.967 147.735 117.215 149.033 117.225ZM138.252 142.159C138.685 142.163 139.125 142.251 139.548 142.433C141.235 143.167 142.014 145.128 141.281 146.815L140.931 147.631C140.191 149.338 138.208 150.089 136.549 149.364C134.858 148.635 134.082 146.673 134.811 144.982L135.166 144.17C135.713 142.902 136.952 142.149 138.252 142.159ZM32.0205 153.976C31.7961 153.977 31.5706 154 31.3477 154.046C27.3888 154.874 23.6064 156.513 20.2481 158.916C13.9524 163.418 13.8205 172.719 19.9642 177.327C29.0283 184.137 39.1757 189.09 50.1184 192.056C55.2473 193.443 60.6266 191.427 63.5187 187.07C64.8413 185.079 66.0277 182.996 67.0699 180.84C67.7881 179.353 67.3207 177.563 65.961 176.627C33.7361 154.441 97.4933 198.334 33.9218 154.568C33.3589 154.18 32.6938 153.976 32.0205 153.976ZM165.161 161.426C156.933 161.558 146.317 175.308 136.845 181.652C132.971 184.247 131.684 183.851 131.463 183.746C131.35 183.694 129.405 182.619 129.577 174.29C129.608 172.796 128.636 171.359 126.945 170.986C124.906 170.537 122.953 172.042 122.911 174.129C122.736 182.862 124.585 187.822 128.568 189.745C135.436 193.073 144.34 184.607 151.698 177.956C165.776 165.254 165.979 166.577 165.994 172.396C166.025 182.882 161.104 196.568 168.015 199.55C168.71 199.846 169.419 200 170.156 200C173.676 200 177.837 196.526 183.806 188.778C184.93 187.321 184.66 185.229 183.202 184.104C181.744 182.984 179.653 183.255 178.528 184.713C169.767 196.075 170.378 194.232 171.764 183.034C172.885 173.911 173.942 165.297 168.531 162.265C167.463 161.667 166.337 161.407 165.161 161.426Z" fill="black"/>
</svg>
