<?xml version="1.0" encoding="UTF-8"?>
<svg fill="none" viewBox="0 0 20 32" xmlns="http://www.w3.org/2000/svg">
<path d="m2.416 11.2 8.316 8.256 2.28-2.28-10.08-5.82c-0.168-0.0975-0.348-0.1515-0.516-0.156zm-0.696 0.384c-0.075 0.1335-0.12 0.291-0.12 0.468v16.044c0 0.129 0.027 0.2445 0.072 0.348l8.508-8.448-8.46-8.412zm11.988 5.988-2.436 2.424 2.436 2.412 2.976-1.704c0.423-0.2445 0.483-0.555 0.48-0.72-0.0045-0.273-0.177-0.528-0.468-0.684-0.2535-0.1365-2.136-1.233-2.988-1.728zm-2.976 2.964-8.388 8.316c0.1395-0.0075 0.291-0.0375 0.432-0.12 0.3285-0.1905 6.972-4.032 6.972-4.032l3.276-1.884-2.292-2.28z" fill="#000"/>
</svg>
