<svg width="24" height="40" viewBox="0 0 24 40" fill="none" xmlns="http://www.w3.org/2000/svg">
<path d="M3.02 14L13.415 24.32L16.265 21.47L3.665 14.195C3.455 14.0731 3.23 14.0056 3.02 14ZM2.15 14.48C2.05625 14.6469 2 14.8438 2 15.065V35.12C2 35.2813 2.03375 35.4256 2.09 35.555L12.725 24.995L2.15 14.48ZM17.135 21.965L14.09 24.995L17.135 28.01L20.855 25.88C21.3837 25.5744 21.4587 25.1863 21.455 24.98C21.4494 24.6388 21.2337 24.32 20.87 24.125C20.5531 23.9544 18.2 22.5838 17.135 21.965ZM13.415 25.67L2.93 36.065C3.10437 36.0556 3.29375 36.0181 3.47 35.915C3.88063 35.6769 12.185 30.875 12.185 30.875L16.28 28.52L13.415 25.67Z" fill="black"/>
</svg>
